<?xml version="1.0" standalone="no"?>
<!DOCTYPE svg PUBLIC "-//W3C//DTD SVG 20010904//EN"
 "http://www.w3.org/TR/2001/REC-SVG-20010904/DTD/svg10.dtd">
<svg version="1.0" xmlns="http://www.w3.org/2000/svg"
 width="64.000000pt" height="64.000000pt" viewBox="0 0 64.000000 64.000000"
 preserveAspectRatio="xMidYMid meet">

<g transform="translate(0.000000,64.000000) scale(0.100000,-0.100000)"
fill="#000000" stroke="none">
<path d="M252 604 c-107 -55 -121 -198 -26 -271 96 -73 238 -10 251 111 14
119 -120 214 -225 160z m129 -41 c64 -38 75 -131 21 -185 -74 -74 -202 -22
-202 82 0 91 102 149 181 103z"/>
<path d="M140 247 c-55 -33 -55 -33 -58 -87 -2 -29 2 -66 9 -82 21 -51 50 -58
235 -58 l166 0 34 34 c33 33 35 38 32 98 l-3 62 -57 34 c-53 31 -78 35 -78 11
0 -5 23 -23 50 -40 48 -29 50 -33 50 -75 0 -31 -6 -50 -20 -64 -18 -18 -33
-20 -178 -20 -190 0 -202 5 -202 80 0 47 1 49 51 79 46 29 58 50 33 58 -5 2
-34 -12 -64 -30z"/>
</g>
</svg>
