<?xml version="1.0" standalone="no"?>
<!DOCTYPE svg PUBLIC "-//W3C//DTD SVG 20010904//EN"
 "http://www.w3.org/TR/2001/REC-SVG-20010904/DTD/svg10.dtd">
<svg version="1.0" xmlns="http://www.w3.org/2000/svg"
 width="90.000000pt" height="90.000000pt" viewBox="0 0 90.000000 90.000000"
 preserveAspectRatio="xMidYMid meet">

<g transform="translate(0.000000,90.000000) scale(0.100000,-0.100000)"
fill="#000000" stroke="none">
<path d="M355 793 c-97 -35 -162 -102 -190 -196 -22 -75 -20 -87 15 -87 21 0
30 5 30 16 0 108 125 224 240 224 115 0 240 -116 240 -224 0 -11 9 -16 31 -16
31 0 32 0 25 42 -29 182 -223 301 -391 241z"/>
<path d="M94 435 c-12 -31 4 -44 58 -47 49 -3 53 -5 53 -28 0 -22 -5 -26 -42
-30 l-42 -5 18 -52 c20 -59 72 -131 117 -162 28 -19 44 -21 194 -21 150 0 166
2 194 21 45 31 97 103 117 162 l18 52 -192 5 -192 5 0 25 0 25 205 5 205 5 0
25 0 25 -353 3 c-307 2 -353 0 -358 -13z"/>
</g>
</svg>
