<?xml version="1.0" standalone="no"?>
<!DOCTYPE svg PUBLIC "-//W3C//DTD SVG 20010904//EN"
 "http://www.w3.org/TR/2001/REC-SVG-20010904/DTD/svg10.dtd">
<svg version="1.0" xmlns="http://www.w3.org/2000/svg"
 width="64.000000pt" height="64.000000pt" viewBox="0 0 64.000000 64.000000"
 preserveAspectRatio="xMidYMid meet">

<g transform="translate(0.000000,64.000000) scale(0.100000,-0.100000)"
fill="#000000" stroke="none">
<path d="M255 626 c-37 -17 -70 -52 -84 -89 -15 -39 -14 -57 4 -57 10 0 15 10
15 26 0 17 14 40 39 65 35 35 44 39 91 39 47 0 56 -4 91 -39 37 -37 39 -41 39
-105 l0 -66 -185 0 -185 0 0 -200 0 -200 240 0 240 0 0 200 0 200 -39 0 -39 0
-4 70 c-4 74 -19 105 -70 143 -34 25 -113 32 -153 13z m275 -426 l0 -170 -210
0 -210 0 0 170 0 170 210 0 210 0 0 -170z"/>
<path d="M300 255 c-10 -12 -10 -19 -2 -27 7 -7 12 -31 12 -55 0 -24 5 -43 10
-43 6 0 10 19 10 43 0 24 5 48 12 55 8 8 8 15 -2 27 -7 8 -16 15 -20 15 -4 0
-13 -7 -20 -15z"/>
</g>
</svg>
